# xmcd CD database file
#
# Track frame offsets:
#	150
#	13574
#	25739
#	43525
#	58653
#	69770
#	81235
#	97516
#	109759
#	118527
#	138191
#	148200
#	159283
#	171900
#	185683
#	201206
#	210915
#	221252
#
# Disc length: 3089 seconds
#
# Revision: 0
# Processed by: cddbd v1.5.1PL0 Copyright (c) Steve Scherf et al.
# Submitted via: CDex 1.50beta10
#
DISCID=e90c0f12
DTITLE=Various Artist - Country Gospel 36 All-Time Favorites (Disc2)
DYEAR=2003
DGENRE=Country
TTITLE0=Albert Brumley Jr. and George Jones - Jesus Hold My Hand
TTITLE1=Albert Brumley Jr. and Porter Wagoner - Rank Strangers To Me
TTITLE2=Albert Brumley Jr. and The Lewis Family - I've Found The Hiding Place
TTITLE3=Albert Brumley Jr. and Larry Gatlin - I'll Meet You In The Morning
TTITLE4=Albert Brumley Jr. and The Jordanaires - He Set Me Free
TTITLE5=Albert Brumley Jr. and Jeannie Seely - Surely I Will Lord
TTITLE6=Albert Brumley Jr. and Cal Smith - It's An Unfriendly World
TTITLE7=Albert Brumley Jr. and The Mel Tillis Singers - I Cannot Find The Way Alone
TTITLE8=Albert Brumley Jr. and Johnny Russell - Her Mansion Is Higher Than Mine
TTITLE9=Albert Brumley Jr. and T. Graham Brown - I'm As Poor As A Beggar
TTITLE10=Albert Brumley Jr. and Roy Clark - You Will Get Your Reward Someday
TTITLE11=Albert Brumley Jr. and Tracy Nelson - It's Bound To Be The Lord
TTITLE12=Albert Brumley Jr. and Tommy Overstreet - Gospel Songs And Old-Time Recipes
TTITLE13=Albert Brumley Jr. and Chet Atkins - There's A Little Pine Log Cabin
TTITLE14=Albert Brumley Jr. -  I Just Steal Away And Pray
TTITLE15=Albert Brumley Jr. and Jeff and Sheri Easter - I'll Put On A Crown
TTITLE16=Albert Brumley Jr. and Merle Haggard - This World Is Not My Home
TTITLE17=Albert Brumley Jr. and Tommy Overstreet - If Everybody Had A Heart Full Of Love
EXTD=YEAR: 2003
EXTT0=
EXTT1=
EXTT2=
EXTT3=
EXTT4=
EXTT5=
EXTT6=
EXTT7=
EXTT8=
EXTT9=
EXTT10=
EXTT11=
EXTT12=
EXTT13=
EXTT14=
EXTT15=
EXTT16=
EXTT17=
PLAYORDER=
